# xmcd
#
# Track frame offsets: 
#        150
#        26101
#        46351
#        63226
#        86561
#        105259
#        129817
#        147677
#        172235
#        185620
#        209991
#        226606
#        252093
#        272188
#        299816
#
# Disc length: 4373 seconds
#
# Revision: 0
# Processed by: cddbd v1.5.2PL0 Copyright (c) Steve Scherf et al.
# Submitted via: ExactAudioCopy v0.99pb5
#
DISCID=e811130f
DTITLE=Various Artist - Tech:Funk [U&A Recordings Vol. 1] (Mixed by The Loops
DTITLE=of Fury)
DYEAR=2009
DGENRE=Electronic
TTITLE0=Dustbowl - Tipton
TTITLE1=Zodiac Cartel - Klappyn
TTITLE2=Rektchordz - Feed Your Head (Lee Mortimer Mix) [Loops Edit]
TTITLE3=Elite Force - Melodic Hypnotic (Myles Dyson Mix)
TTITLE4=Elite Force - Ghetto Fabulous (Dopamine Mix)
TTITLE5=Elite Force - Used and Abused (Zodiac Cartel Mix)
TTITLE6=The Loops of Fury - Flick A Switch (Dj Dan and Mike Balance Mix)
TTITLE7=Rektchordz - These Girls (Meat Katie Mix)
TTITLE8=Hyperion - Gotta Hold It (The Loops of Fury Mix)
TTITLE9=Zodiac Cartel - Sweet Control
TTITLE10=Elite Force and Meat Katie - Non-Believer
TTITLE11=Zodiac Cartel - We Don't Play That (Mike Hulme Mix)
TTITLE12=Mike Hulme - 100mg (The Loops of Fury Mix)
TTITLE13=Elite Force - No Turning Back (Butter Party Mix)
TTITLE14=Elite Force - Peyote Road (Hyperion's "The Sun of Cactus" Mix
TTITLE14=)
EXTD=
EXTT0=
EXTT1=
EXTT2=
EXTT3=
EXTT4=
EXTT5=
EXTT6=
EXTT7=
EXTT8=
EXTT9=
EXTT10=
EXTT11=
EXTT12=
EXTT13=
EXTT14=
PLAYORDER=
